<svg width="19" height="20" viewBox="0 0 19 20" fill="none" xmlns="http://www.w3.org/2000/svg">
<path d="M9.0702 6.72513L2.76457 13.6914C2.65931 13.8076 2.60059 13.962 2.60059 14.1226C2.60059 14.2832 2.65931 14.4376 2.76457 14.5539L2.7717 14.5614C2.82273 14.6179 2.88416 14.6629 2.95224 14.6937C3.02032 14.7245 3.09364 14.7403 3.16773 14.7403C3.24182 14.7403 3.31514 14.7245 3.38322 14.6937C3.45131 14.6629 3.51273 14.6179 3.56376 14.5614L9.50126 8.00138L15.4364 14.5614C15.4874 14.6179 15.5488 14.6629 15.6169 14.6937C15.685 14.7245 15.7583 14.7403 15.8324 14.7403C15.9065 14.7403 15.9798 14.7245 16.0479 14.6937C16.116 14.6629 16.1774 14.6179 16.2285 14.5614L16.2356 14.5539C16.3408 14.4376 16.3996 14.2832 16.3996 14.1226C16.3996 13.962 16.3408 13.8076 16.2356 13.6914L9.92995 6.72513C9.8745 6.66386 9.8078 6.61509 9.73391 6.58176C9.66002 6.54843 9.58046 6.53125 9.50007 6.53125C9.41969 6.53125 9.34013 6.54843 9.26624 6.58176C9.19235 6.61509 9.12565 6.66386 9.0702 6.72513Z" fill="white"/>
</svg>
