<svg width="19" height="20" viewBox="0 0 19 20" fill="none" xmlns="http://www.w3.org/2000/svg">
<path d="M9.9298 13.2749L16.2354 6.30862C16.3407 6.19239 16.3994 6.03796 16.3994 5.87737C16.3994 5.71679 16.3407 5.56236 16.2354 5.44612L16.2283 5.43862C16.1773 5.38208 16.1158 5.33706 16.0478 5.30629C15.9797 5.27552 15.9064 5.25965 15.8323 5.25965C15.7582 5.25965 15.6849 5.27552 15.6168 5.30629C15.5487 5.33706 15.4873 5.38208 15.4362 5.43862L9.49874 11.9986L3.56361 5.43862C3.51258 5.38208 3.45116 5.33706 3.38307 5.30629C3.31499 5.27552 3.24167 5.25965 3.16758 5.25965C3.09349 5.25965 3.02017 5.27552 2.95209 5.30629C2.88401 5.33706 2.82258 5.38208 2.77155 5.43862L2.76442 5.44612C2.65916 5.56236 2.60044 5.71679 2.60044 5.87737C2.60044 6.03796 2.65916 6.19239 2.76442 6.30862L9.07005 13.2749C9.1255 13.3361 9.1922 13.3849 9.26609 13.4182C9.33998 13.4516 9.41954 13.4688 9.49993 13.4688C9.58031 13.4688 9.65987 13.4516 9.73376 13.4182C9.80765 13.3849 9.87435 13.3361 9.9298 13.2749Z" fill="white"/>
</svg>
