<svg width="24" height="24" viewBox="0 0 24 24" fill="none" xmlns="http://www.w3.org/2000/svg">
<path d="M4.43093 12.8227L17.4309 21.8227C17.581 21.9265 17.7565 21.9873 17.9386 21.9984C18.1207 22.0096 18.3024 21.9708 18.464 21.8861C18.6256 21.8015 18.761 21.6742 18.8554 21.5181C18.9499 21.362 18.9999 21.1831 18.9999 21.0007V3.00066C19.0001 2.81814 18.9502 2.63906 18.8558 2.48284C18.7614 2.32662 18.6261 2.19922 18.4644 2.11443C18.3028 2.02965 18.121 1.99072 17.9389 2.00187C17.7567 2.01301 17.581 2.07381 17.4309 2.17766L4.43093 11.1777C4.29849 11.2701 4.19033 11.3931 4.11564 11.5363C4.04095 11.6795 4.00195 11.8387 4.00195 12.0002C4.00195 12.1617 4.04095 12.3208 4.11564 12.464C4.19033 12.6072 4.29849 12.7302 4.43093 12.8227V12.8227Z" fill="white"/>
</svg>
