<svg width="24" height="24" viewBox="0 0 24 24" fill="none" xmlns="http://www.w3.org/2000/svg">
<path d="M19.5691 11.1773L6.56907 2.17734C6.41905 2.07353 6.24348 2.01274 6.06139 2.00156C5.87929 1.99037 5.6976 2.02921 5.536 2.11388C5.3744 2.19854 5.23904 2.3258 5.14457 2.48188C5.0501 2.63796 5.00013 2.8169 5.00007 2.99934L5.00007 20.9993C4.99995 21.1819 5.04979 21.3609 5.14418 21.5172C5.23857 21.6734 5.37392 21.8008 5.53556 21.8856C5.69719 21.9704 5.87895 22.0093 6.06114 21.9981C6.24332 21.987 6.41898 21.9262 6.56907 21.8223L19.5691 12.8223C19.7015 12.7299 19.8097 12.6069 19.8844 12.4637C19.959 12.3205 19.998 12.1613 19.998 11.9998C19.998 11.8383 19.959 11.6792 19.8844 11.536C19.8097 11.3928 19.7015 11.2698 19.5691 11.1773V11.1773Z" fill="white"/>
</svg>
